HIERARCHY
ROOT mixamorig:Hips
{
	OFFSET 0.000000 201.639420 0.000000
	CHANNELS 6 Xposition Yposition Zposition Xrotation Yrotation Zrotation
	JOINT mixamorig:Spine
	{
		OFFSET 0.006200 19.524994 -2.481800
		CHANNELS 3 Xrotation Yrotation Zrotation
		JOINT mixamorig:Spine1
		{
			OFFSET -0.000900 22.835007 -2.825400
			CHANNELS 3 Xrotation Yrotation Zrotation
			JOINT mixamorig:Spine2
			{
				OFFSET -0.020600 26.552490 -3.193300
				CHANNELS 3 Xrotation Yrotation Zrotation
				JOINT mixamorig:Neck
				{
					OFFSET -0.060000 30.701813 1.352200
					CHANNELS 3 Xrotation Yrotation Zrotation
					JOINT mixamorig:Head
					{
						OFFSET -0.087200 22.547607 3.670900
						CHANNELS 3 Xrotation Yrotation Zrotation
						JOINT mixamorig:HeadTop_End
						{
							OFFSET -0.830600 40.355194 7.893500
							CHANNELS 3 Xrotation Yrotation Zrotation
							End Site
							{
								OFFSET 0.000000 30.592346 0.000000
							}
						}
						JOINT mixamorig:RightEye
						{
							OFFSET -6.302100 18.118591 16.197100
							CHANNELS 3 Xrotation Yrotation Zrotation
							End Site
							{
								OFFSET 0.000000 30.592346 0.000000
							}
						}
						JOINT mixamorig:LeftEye
						{
							OFFSET 6.741500 18.382690 16.401899
							CHANNELS 3 Xrotation Yrotation Zrotation
							End Site
							{
								OFFSET 0.000000 30.592346 0.000000
							}
						}
					}
				}
				JOINT mixamorig:LeftShoulder
				{
					OFFSET 11.924900 18.230499 1.425400
					CHANNELS 3 Xrotation Yrotation Zrotation
					JOINT mixamorig:LeftArm
					{
						OFFSET 25.435989 -0.697632 -5.229300
						CHANNELS 3 Xrotation Yrotation Zrotation
						JOINT mixamorig:LeftForeArm
						{
							OFFSET 54.684776 0.000000 0.000000
							CHANNELS 3 Xrotation Yrotation Zrotation
							JOINT mixamorig:LeftHand
							{
								OFFSET 55.098175 0.000000 0.000000
								CHANNELS 3 Xrotation Yrotation Zrotation
								JOINT mixamorig:LeftHandMiddle1
								{
									OFFSET 23.369751 0.000000 0.000000
									CHANNELS 3 Xrotation Yrotation Zrotation
									JOINT mixamorig:LeftHandMiddle2
									{
										OFFSET 6.378677 0.000000 0.000000
										CHANNELS 3 Xrotation Yrotation Zrotation
										JOINT mixamorig:LeftHandMiddle3
										{
											OFFSET 6.148331 0.000000 0.000000
											CHANNELS 3 Xrotation Yrotation Zrotation
											JOINT mixamorig:LeftHandMiddle4
											{
												OFFSET 6.582504 0.000000 0.000000
												CHANNELS 3 Xrotation Yrotation Zrotation
												End Site
												{
													OFFSET -1.168900 6.395691 1.028606
												}
											}
										}
									}
								}
								JOINT mixamorig:LeftHandThumb1
								{
									OFFSET 7.235672 -3.848206 5.434273
									CHANNELS 3 Xrotation Yrotation Zrotation
									JOINT mixamorig:LeftHandThumb2
									{
										OFFSET 6.568451 -3.792297 3.792300
										CHANNELS 3 Xrotation Yrotation Zrotation
										JOINT mixamorig:LeftHandThumb3
										{
											OFFSET 6.063080 -3.500519 3.500518
											CHANNELS 3 Xrotation Yrotation Zrotation
											JOINT mixamorig:LeftHandThumb4
											{
												OFFSET 4.793182 -2.767334 2.767349
												CHANNELS 3 Xrotation Yrotation Zrotation
												End Site
												{
													OFFSET 0.101639 6.054260 1.275483
												}
											}
										}
									}
								}
								JOINT mixamorig:LeftHandIndex1
								{
									OFFSET 23.101074 -0.309540 4.992809
									CHANNELS 3 Xrotation Yrotation Zrotation
									JOINT mixamorig:LeftHandIndex2
									{
										OFFSET 6.226883 0.000000 0.000000
										CHANNELS 3 Xrotation Yrotation Zrotation
										JOINT mixamorig:LeftHandIndex3
										{
											OFFSET 6.094330 0.000000 0.000000
											CHANNELS 3 Xrotation Yrotation Zrotation
											JOINT mixamorig:LeftHandIndex4
											{
												OFFSET 5.482605 0.000000 0.000000
												CHANNELS 3 Xrotation Yrotation Zrotation
												End Site
												{
													OFFSET -1.427902 5.233032 0.797164
												}
											}
										}
									}
								}
								JOINT mixamorig:LeftHandRing1
								{
									OFFSET 22.299240 0.021149 -3.964172
									CHANNELS 3 Xrotation Yrotation Zrotation
									JOINT mixamorig:LeftHandRing2
									{
										OFFSET 6.321869 0.000000 0.000000
										CHANNELS 3 Xrotation Yrotation Zrotation
										JOINT mixamorig:LeftHandRing3
										{
											OFFSET 5.899796 0.000000 0.000000
											CHANNELS 3 Xrotation Yrotation Zrotation
											JOINT mixamorig:LeftHandRing4
											{
												OFFSET 6.517899 0.000000 0.000000
												CHANNELS 3 Xrotation Yrotation Zrotation
												End Site
												{
													OFFSET -1.637299 6.232208 0.980890
												}
											}
										}
									}
								}
								JOINT mixamorig:LeftHandPinky1
								{
									OFFSET 20.463791 -0.302338 -8.562233
									CHANNELS 3 Xrotation Yrotation Zrotation
									JOINT mixamorig:LeftHandPinky2
									{
										OFFSET 6.908646 0.000000 0.000000
										CHANNELS 3 Xrotation Yrotation Zrotation
										JOINT mixamorig:LeftHandPinky3
										{
											OFFSET 4.622849 0.000000 0.000000
											CHANNELS 3 Xrotation Yrotation Zrotation
											JOINT mixamorig:LeftHandPinky4
											{
												OFFSET 5.216080 0.000000 0.000000
												CHANNELS 3 Xrotation Yrotation Zrotation
												End Site
												{
													OFFSET -0.606308 5.116241 0.814926
												}
											}
										}
									}
								}
							}
						}
					}
				}
				JOINT mixamorig:RightShoulder
				{
					OFFSET -12.001300 18.284088 1.348900
					CHANNELS 3 Xrotation Yrotation Zrotation
					JOINT mixamorig:RightArm
					{
						OFFSET -25.308500 -0.751312 -5.164599
						CHANNELS 3 Xrotation Yrotation Zrotation
						JOINT mixamorig:RightForeArm
						{
							OFFSET -54.684429 0.000000 0.000000
							CHANNELS 3 Xrotation Yrotation Zrotation
							JOINT mixamorig:RightHand
							{
								OFFSET -55.150291 0.000000 0.000000
								CHANNELS 3 Xrotation Yrotation Zrotation
								JOINT mixamorig:RightHandMiddle1
								{
									OFFSET -23.317566 0.000000 0.000000
									CHANNELS 3 Xrotation Yrotation Zrotation
									JOINT mixamorig:RightHandMiddle2
									{
										OFFSET -6.378403 0.000000 0.000000
										CHANNELS 3 Xrotation Yrotation Zrotation
										JOINT mixamorig:RightHandMiddle3
										{
											OFFSET -6.148193 0.000000 0.000000
											CHANNELS 3 Xrotation Yrotation Zrotation
											JOINT mixamorig:RightHandMiddle4
											{
												OFFSET -6.583389 0.000000 0.000000
												CHANNELS 3 Xrotation Yrotation Zrotation
												End Site
												{
													OFFSET 1.171692 6.395905 1.029786
												}
											}
										}
									}
								}
								JOINT mixamorig:RightHandThumb1
								{
									OFFSET -7.190521 -3.860474 5.435846
									CHANNELS 3 Xrotation Yrotation Zrotation
									JOINT mixamorig:RightHandThumb2
									{
										OFFSET -6.567429 -3.791718 3.791708
										CHANNELS 3 Xrotation Yrotation Zrotation
										JOINT mixamorig:RightHandThumb3
										{
											OFFSET -6.062469 -3.500153 3.500166
											CHANNELS 3 Xrotation Yrotation Zrotation
											JOINT mixamorig:RightHandThumb4
											{
												OFFSET -4.792618 -2.767029 2.767022
												CHANNELS 3 Xrotation Yrotation Zrotation
												End Site
												{
													OFFSET -0.100327 6.053253 1.276754
												}
											}
										}
									}
								}
								JOINT mixamorig:RightHandIndex1
								{
									OFFSET -23.048981 -0.310791 4.992554
									CHANNELS 3 Xrotation Yrotation Zrotation
									JOINT mixamorig:RightHandIndex2
									{
										OFFSET -6.227539 0.000000 0.000000
										CHANNELS 3 Xrotation Yrotation Zrotation
										JOINT mixamorig:RightHandIndex3
										{
											OFFSET -6.095047 0.000000 0.000000
											CHANNELS 3 Xrotation Yrotation Zrotation
											JOINT mixamorig:RightHandIndex4
											{
												OFFSET -5.484772 0.000000 0.000000
												CHANNELS 3 Xrotation Yrotation Zrotation
												End Site
												{
													OFFSET 1.420593 5.237305 0.797056
												}
											}
										}
									}
								}
								JOINT mixamorig:RightHandRing1
								{
									OFFSET -22.246323 0.020569 -3.963762
									CHANNELS 3 Xrotation Yrotation Zrotation
									JOINT mixamorig:RightHandRing2
									{
										OFFSET -6.322128 0.000000 0.000000
										CHANNELS 3 Xrotation Yrotation Zrotation
										JOINT mixamorig:RightHandRing3
										{
											OFFSET -5.900024 0.000000 0.000000
											CHANNELS 3 Xrotation Yrotation Zrotation
											JOINT mixamorig:RightHandRing4
											{
												OFFSET -6.518356 0.000000 0.000000
												CHANNELS 3 Xrotation Yrotation Zrotation
												End Site
												{
													OFFSET 1.636398 6.232697 0.982186
												}
											}
										}
									}
								}
								JOINT mixamorig:RightHandPinky1
								{
									OFFSET -20.411011 -0.303314 -8.561701
									CHANNELS 3 Xrotation Yrotation Zrotation
									JOINT mixamorig:RightHandPinky2
									{
										OFFSET -6.907349 0.000000 0.000000
										CHANNELS 3 Xrotation Yrotation Zrotation
										JOINT mixamorig:RightHandPinky3
										{
											OFFSET -4.623840 0.000000 0.000000
											CHANNELS 3 Xrotation Yrotation Zrotation
											JOINT mixamorig:RightHandPinky4
											{
												OFFSET -5.218353 0.000000 0.000000
												CHANNELS 3 Xrotation Yrotation Zrotation
												End Site
												{
													OFFSET 0.602097 5.118835 0.816273
												}
											}
										}
									}
								}
							}
						}
					}
				}
			}
		}
	}
	JOINT mixamorig:LeftUpLeg
	{
		OFFSET 18.168400 -13.561905 -0.039000
		CHANNELS 3 Xrotation Yrotation Zrotation
		JOINT mixamorig:LeftLeg
		{
			OFFSET 0.577358 -80.825211 -3.695000
			CHANNELS 3 Xrotation Yrotation Zrotation
			JOINT mixamorig:LeftFoot
			{
				OFFSET -0.577356 -83.370262 -6.520700
				CHANNELS 3 Xrotation Yrotation Zrotation
				JOINT mixamorig:LeftToeBase
				{
					OFFSET 0.750401 -20.798306 25.135401
					CHANNELS 3 Xrotation Yrotation Zrotation
					JOINT mixamorig:LeftToe_End
					{
						OFFSET -0.000500 0.001200 19.917799
						CHANNELS 3 Xrotation Yrotation Zrotation
						End Site
						{
							OFFSET 0.000000 19.917805 0.000000
						}
					}
				}
			}
		}
	}
	JOINT mixamorig:RightUpLeg
	{
		OFFSET -18.162500 -13.585098 -0.041000
		CHANNELS 3 Xrotation Yrotation Zrotation
		JOINT mixamorig:RightLeg
		{
			OFFSET -0.595024 -80.945297 -3.631900
			CHANNELS 3 Xrotation Yrotation Zrotation
			JOINT mixamorig:RightFoot
			{
				OFFSET 0.595024 -83.218193 -6.561200
				CHANNELS 3 Xrotation Yrotation Zrotation
				JOINT mixamorig:RightToeBase
				{
					OFFSET -0.753601 -20.807106 25.115000
					CHANNELS 3 Xrotation Yrotation Zrotation
					JOINT mixamorig:RightToe_End
					{
						OFFSET 0.000299 0.001700 19.918200
						CHANNELS 3 Xrotation Yrotation Zrotation
						End Site
						{
							OFFSET 0.000000 19.918203 0.000000
						}
					}
				}
			}
		}
	}
}
MOTION
Frames: 4
Frame Time: 0.033333
1.688433 119.578140 3.493759 6.156959 1.368994 -1.269789 9.144306 -0.004783 -3.136267 -2.547221 1.387042 -2.863740 -2.522494 1.431575 -2.824047 -2.216497 -1.660727 0.674308 -18.948634 -6.838221 -2.322158 -0.000000 0.000000 -0.000000 -0.000000 0.000000 -0.000000 -0.000000 0.000000 -0.000000 2.410279 -8.770813 0.391144 5.791994 -30.568324 -58.196552 -0.000011 -68.909867 -0.000026 35.913838 9.868390 40.551619 1.120843 7.204945 -14.249019 0.333428 1.949987 -19.404880 0.236303 1.648669 -16.312148 -0.000001 -0.000002 0.000000 5.011634 2.780534 22.749373 2.078469 20.364655 -25.687419 -6.775522 29.866255 5.563941 0.000003 -0.000002 0.000001 -0.686764 2.135992 -25.782426 0.434887 2.216892 -22.194966 0.101735 1.088177 -10.681830 -0.000001 0.000001 -0.000003 1.417118 8.971655 -12.521198 0.208832 1.551791 -15.328770 0.266694 1.749112 -17.337107 -0.000000 -0.000002 0.000002 1.169889 10.297374 -11.887831 0.174686 1.421364 -14.012119 0.112089 1.141709 -11.214135 -0.000005 0.000000 -0.000002 -55.827224 9.438301 -21.708542 -26.651379 11.883999 35.993280 0.000077 71.838687 -0.000089 -24.230533 -4.474436 -16.947257 1.268335 -6.808748 87.823242 3.627973 -4.542286 77.219230 1.397894 -3.328397 45.554121 0.000004 -0.000001 -0.000000 19.018038 8.981235 0.748967 7.352509 -29.690477 13.050369 85.345625 -61.083960 45.905671 -0.000002 0.000000 -0.000001 4.226653 -1.950785 90.079444 3.610317 -4.538191 76.996087 3.070108 -4.378958 70.055447 -0.000000 0.000001 -0.000003 -1.527238 -7.276973 92.987684 3.638635 -4.544658 77.353559 1.737588 -3.629946 51.147274 0.000001 0.000001 -0.000001 -5.526798 -8.899472 100.008996 4.209847 -4.635692 84.482275 3.033107 -4.365402 69.570190 0.000001 0.000000 0.000000 -98.669616 -7.083350 9.736143 84.981787 4.202763 0.209180 8.365274 -6.000521 -4.799997 -0.140605 -0.000005 -0.000002 0.000000 0.000000 -0.000000 -97.204308 8.341563 -6.648573 84.110501 -8.577621 -1.891877 9.298835 0.494488 9.743876 -0.191616 -0.000007 -0.000000 -0.000000 0.000000 0.000000 
1.746018 119.690399 3.598730 6.057209 1.346839 -1.233467 9.080189 -0.149044 -3.232635 -2.646456 1.200431 -2.996194 -2.620651 1.243421 -2.958349 -2.258146 -1.538273 0.865237 -17.518686 -6.066296 -2.027574 0.000000 -0.000000 -0.000000 0.000000 -0.000000 -0.000000 0.000000 -0.000000 -0.000000 2.432834 -9.359080 0.407390 6.680451 -29.705842 -57.638723 -0.000008 -69.529939 -0.000037 35.595155 10.505442 40.599403 1.095926 7.181234 -13.949742 0.333794 1.951012 -19.415426 0.236621 1.649729 -16.322967 -0.000001 -0.000001 0.000002 4.776971 2.717646 22.819901 2.538853 20.197993 -26.316294 -7.183196 30.108194 6.564981 -0.000002 0.000002 -0.000002 -0.704205 2.056907 -25.446129 0.434340 2.215565 -22.180747 0.101523 1.087071 -10.670684 -0.000002 -0.000001 0.000002 1.403965 8.973736 -12.381251 0.208838 1.551820 -15.329134 0.266718 1.749181 -17.337662 -0.000001 0.000001 -0.000003 1.181200 10.314856 -11.830234 0.174783 1.421749 -14.016175 0.112171 1.142126 -11.218160 0.000001 -0.000001 0.000001 -52.917270 10.389924 -23.043808 -24.413056 15.820164 33.410929 -0.000005 64.229979 0.000000 -23.968592 -5.928906 -17.343529 1.129481 -6.788331 87.561386 3.625406 -4.541707 77.186349 1.396797 -3.327309 45.535259 0.000000 0.000002 0.000002 18.852369 8.953467 0.508291 7.130125 -29.563699 12.516426 84.800159 -60.998685 45.739373 -0.000001 0.000000 0.000003 4.219595 -1.950570 89.570595 3.605623 -4.537131 76.936924 3.064967 -4.377111 69.988067 0.000002 -0.000001 -0.000001 -1.609086 -7.218055 92.431741 3.616839 -4.539733 77.078350 1.721729 -3.617144 50.896497 0.000001 0.000002 0.000000 -5.571692 -8.842437 99.640425 4.188358 -4.633569 84.216110 3.014155 -4.358304 69.321202 0.000000 -0.000001 0.000001 -98.495945 -7.030449 9.742395 85.015918 4.363541 0.211203 8.263058 -6.083524 -4.783457 -0.138932 0.000003 -0.000000 -0.000000 0.000001 -0.000000 -97.037993 8.342764 -6.693208 84.114176 -8.508778 -1.891947 9.220628 0.487258 9.737854 -0.191616 -0.000008 -0.000000 -0.000000 0.000000 0.000000 
1.732969 119.687332 3.524183 5.748315 1.333431 -1.216903 9.034404 -0.304285 -3.307004 -2.696322 0.924315 -3.151719 -2.669534 0.965900 -3.115837 -2.024379 -1.362630 1.010140 -15.693430 -4.997999 -1.997569 0.000001 -0.000000 0.000000 0.000001 -0.000000 0.000000 0.000001 -0.000000 0.000000 2.474895 -9.924010 0.452726 7.539943 -28.796846 -57.032278 -0.000040 -70.043945 -0.000059 35.065191 11.163405 40.722206 1.070926 7.159190 -13.640330 0.334188 1.952089 -19.426766 0.236944 1.650892 -16.334628 0.000001 -0.000002 0.000002 4.542849 2.647946 22.882647 3.028759 20.013486 -26.949620 -7.611881 30.354617 7.593299 -0.000002 0.000001 0.000000 -0.720646 1.976952 -25.100059 0.433656 2.213853 -22.162883 0.101232 1.085557 -10.655618 0.000000 -0.000002 0.000001 1.390536 8.976924 -12.236209 0.208866 1.551891 -15.329583 0.266760 1.749340 -17.339304 -0.000002 0.000000 -0.000003 1.192818 10.332331 -11.771996 0.174830 1.421935 -14.018043 0.112210 1.142315 -11.220022 -0.000001 -0.000000 0.000002 -50.936972 13.838694 -24.055433 -19.993985 15.004669 30.266730 0.000027 61.748161 -0.000032 -23.238081 -7.128501 -17.782852 1.017272 -6.777630 87.459432 3.626931 -4.542017 77.205562 1.398317 -3.328811 45.561552 -0.000001 -0.000000 0.000001 18.724188 8.978683 0.305058 6.971898 -29.543341 12.055478 85.470754 -61.058278 46.529284 0.000000 0.000002 0.000001 4.221560 -1.947888 89.248012 3.617972 -4.539974 77.092844 3.076727 -4.381344 70.142122 0.000001 -0.000000 -0.000001 -1.673919 -7.178980 92.064516 3.600734 -4.536023 76.874974 1.709319 -3.607043 50.699531 0.000002 -0.000000 0.000002 -5.599966 -8.813617 99.454828 4.181307 -4.632852 84.129072 3.007771 -4.355907 69.237013 -0.000001 -0.000000 0.000000 -98.197568 -6.989618 9.797272 85.030316 4.492291 0.213661 8.262574 -6.190279 -4.734837 -0.136925 -0.000001 -0.000001 -0.000000 -0.000001 -0.000000 -96.750798 8.292804 -6.723957 84.120337 -8.452191 -1.891619 9.218244 0.482163 9.682133 -0.191616 -0.000008 -0.000000 -0.000000 0.000000 -0.000000 
1.688582 119.663498 3.310938 5.234418 1.266500 -1.155899 9.018420 -0.425543 -3.367889 -2.688070 0.657171 -3.326890 -2.660561 0.697720 -3.292095 -1.452232 -1.177906 1.171333 -13.743796 -3.828650 -2.187214 -0.000000 0.000000 0.000000 -0.000000 0.000000 0.000000 -0.000000 0.000000 0.000000 2.468254 -10.639493 0.413856 8.427589 -27.803076 -56.293033 -0.000075 -70.440636 -0.000072 34.382991 11.790130 40.856990 1.045939 7.138267 -13.324602 0.334588 1.953284 -19.438710 0.237315 1.652092 -16.347078 0.000001 -0.000000 0.000000 4.311403 2.572234 22.937064 3.543253 19.812229 -27.580299 -8.058623 30.603175 8.640307 0.000004 -0.000001 0.000001 -0.735926 1.896919 -24.747833 0.432849 2.211885 -22.142058 0.100889 1.083706 -10.637460 -0.000000 -0.000002 0.000001 1.377070 8.981496 -12.087958 0.208883 1.551936 -15.330148 0.266815 1.749507 -17.341336 0.000001 0.000001 -0.000001 1.204902 10.349857 -11.714218 0.174870 1.422090 -14.019534 0.112237 1.142446 -11.221483 -0.000001 0.000000 -0.000001 -48.680978 17.172055 -24.146180 -16.950819 12.019746 28.045469 0.000002 62.575686 0.000002 -21.855576 -7.713214 -17.709026 0.958128 -6.797657 87.821944 3.652500 -4.547754 77.528583 1.415629 -3.345668 45.858799 0.000002 -0.000004 -0.000002 18.764900 9.028795 0.157759 6.861257 -29.697092 11.550780 88.840598 -61.305626 49.409565 0.000000 0.000001 -0.000004 4.265780 -1.940500 89.443629 3.676055 -4.552855 77.825668 3.134799 -4.401833 70.900348 0.000001 -0.000001 -0.000001 -1.720603 -7.190117 92.144525 3.608875 -4.537919 76.977625 1.711446 -3.608776 50.733084 0.000001 0.000001 0.000000 -5.616442 -8.849718 99.753526 4.216525 -4.636325 84.564907 3.036775 -4.366758 69.618233 0.000001 0.000002 0.000002 -97.691280 -6.935268 9.899071 85.001397 4.674003 0.216502 8.312967 -6.324821 -4.694679 -0.132494 0.000001 -0.000002 -0.000000 0.000001 0.000000 -96.304943 8.194539 -6.755789 84.078577 -8.328952 -1.890245 9.278060 0.475161 9.535744 -0.191616 -0.000007 -0.000000 -0.000000 0.000001 0.000000 
